<svg 
 xmlns="http://www.w3.org/2000/svg"
 xmlns:xlink="http://www.w3.org/1999/xlink"
 width="23px" height="20px">
<path fill-rule="evenodd" 
 d="M-0.000,20.000 L-0.000,18.000 L23.000,18.000 L23.000,20.000 L-0.000,20.000 ZM16.917,16.000 L6.083,16.000 C4.107,16.000 2.500,14.393 2.500,12.416 L2.500,3.584 C2.500,1.607 4.107,0.000 6.083,0.000 L16.917,0.000 C18.893,0.000 20.500,1.607 20.500,3.584 L20.500,12.416 C20.500,14.393 18.893,16.000 16.917,16.000 ZM18.500,3.584 C18.500,2.710 17.790,2.000 16.917,2.000 L6.083,2.000 C5.210,2.000 4.500,2.710 4.500,3.584 L4.500,12.416 C4.500,13.290 5.210,14.000 6.083,14.000 L16.917,14.000 C17.790,14.000 18.500,13.290 18.500,12.416 L18.500,3.584 ZM9.500,8.202 L7.055,9.832 L5.945,8.168 L9.500,5.798 L12.373,7.713 L14.793,5.293 L16.207,6.707 L12.627,10.287 L9.500,8.202 Z"/>
</svg>