<?xml version="1.0" encoding="utf-8"?>
<!-- Generator: Adobe Illustrator 16.0.0, SVG Export Plug-In . SVG Version: 6.00 Build 0)  -->
<!DOCTYPE svg PUBLIC "-//W3C//DTD SVG 1.1//EN" "http://www.w3.org/Graphics/SVG/1.1/DTD/svg11.dtd">
<svg version="1.1" id="Layer_1" xmlns="http://www.w3.org/2000/svg" xmlns:xlink="http://www.w3.org/1999/xlink" x="0px" y="0px"
	 width="64px" height="64px" fill="#606266" viewBox="0 0 64 64" style="enable-background:new 0 0 64 64;" xml:space="preserve">
<style type="text/css">
<![CDATA[
	.st0{fill:none;stroke:#000000;stroke-width:4;stroke-linecap:round;stroke-linejoin:round;stroke-miterlimit:10;}
	.st1{fill:none;stroke:#FFFFFF;stroke-width:4;stroke-linecap:round;stroke-linejoin:round;stroke-miterlimit:10;}
	.st2{fill:#FFFFFF;stroke:#FFFFFF;stroke-width:4;stroke-linecap:round;stroke-linejoin:round;stroke-miterlimit:10;}
	.st3{stroke:#000000;stroke-linecap:round;stroke-linejoin:round;stroke-miterlimit:10;}
	.st4{fill:none;stroke:#000000;stroke-width:4;stroke-miterlimit:10;}
	.st5{display:none;opacity:0.53;fill:#FF0000;}
	.st6{stroke:#000000;stroke-width:2.5;stroke-miterlimit:10;}
	.st7{stroke:#000000;stroke-width:4;stroke-linecap:round;stroke-linejoin:round;stroke-miterlimit:10;}
	.st8{stroke:#000000;stroke-width:6;stroke-linecap:round;stroke-linejoin:round;stroke-miterlimit:10;}
	.st9{stroke:#000000;stroke-miterlimit:10;}
	.st10{stroke:#000000;stroke-width:2;stroke-miterlimit:10;}
]]>
</style>
<path d="M47,60.8h-7c-1.1,0-2-0.9-2-2V42.1c0-1.1-0.9-2-2-2h-8c-1.1,0-2,0.9-2,2v16.8c0,1.1-0.9,2-2,2h-7c-3.3,0-6-2.7-6-6V35.7H4
	c-0.8,0-1.5-0.5-1.8-1.2S2,32.8,2.6,32.3l28-28.5c0.8-0.8,2.1-0.8,2.9,0l28,28.5c0.6,0.6,0.7,1.4,0.4,2.2s-1,1.2-1.8,1.2h-7v19.2
	C53,58.1,50.3,60.8,47,60.8z M42,56.8h5c1.1,0,2-0.9,2-2V34c0-0.1,0-0.2,0-0.2c0-0.5,0.2-1.1,0.5-1.5c0.4-0.4,0.9-0.6,1.5-0.6h4.3
	L32,8L8.8,31.7H13c0.5,0,1.1,0.2,1.5,0.6c0.4,0.4,0.6,0.9,0.5,1.5c0,0.1,0,0.2,0,0.2v20.8c0,1.1,0.9,2,2,2h5V42.1c0-3.3,2.7-6,6-6h8
	c3.3,0,6,2.7,6,6V56.8z"/>
</svg>
