<?xml version="1.0" encoding="utf-8"?>
<!-- Generator: Adobe Illustrator 16.0.0, SVG Export Plug-In . SVG Version: 6.00 Build 0)  -->
<!DOCTYPE svg PUBLIC "-//W3C//DTD SVG 1.1//EN" "http://www.w3.org/Graphics/SVG/1.1/DTD/svg11.dtd">
<svg version="1.1" id="Layer_1" xmlns="http://www.w3.org/2000/svg" xmlns:xlink="http://www.w3.org/1999/xlink" x="0px" y="0px"
	 width="64px" height="64px" viewBox="0 0 64 64" enable-background="new 0 0 64 64" xml:space="preserve">
<g>
	<path d="M32.104,19.994c-6.649,0-12.06,5.41-12.06,12.06c0,6.649,5.41,12.059,12.06,12.059c6.65,0,12.061-5.41,12.061-12.059
		C44.164,25.404,38.754,19.994,32.104,19.994z M32.104,40.061c-4.415,0-8.008-3.592-8.008-8.007c0-4.416,3.593-8.008,8.008-8.008
		s8.008,3.592,8.008,8.008C40.111,36.469,36.519,40.061,32.104,40.061z"/>
	<path d="M62.552,26.036C62.053,23.398,60,21.847,58,21.847V22h-0.168c-3.037,0-5.509-2.624-5.509-5.661
		c0-0.724,0.321-1.755,0.484-2.143c1.024-2.314,0.233-5.188-1.901-6.677c-0.062-0.044-0.128-0.105-0.189-0.138l-7.234-4.028
		c-0.059-0.034-0.121-0.069-0.262-0.131c-2.064-0.898-4.82-0.344-6.369,1.264c-1.057,1.09-3.256,2.665-4.47,2.665
		c-1.226,0-3.438-1.607-4.495-2.716c-1.042-1.097-2.611-1.752-4.197-1.752c-0.767,0-1.497,0.146-2.158,0.429l-0.108,0.045
		c-0.05,0.022-0.101,0.047-0.162,0.08l-7.488,4.114c-0.064,0.034-0.123,0.071-0.184,0.112l-0.083,0.058
		c-2.082,1.446-2.878,4.283-1.856,6.589c0.159,0.37,0.488,1.519,0.488,2.229c0,3.037-2.472,5.661-5.509,5.661H6.33
		c-2.209,0-3.959,1.552-4.459,4.191c-0.106,0.573-0.641,3.478-0.641,5.977c0,2.495,0.341,5.442,0.448,6.018
		C2.179,40.824,4,42.264,6,42.264V42h0.629c3.037,0,5.509,2.716,5.509,5.753c0,0.709-0.309,1.766-0.483,2.188
		c-1.023,2.312-0.233,5.209,1.838,6.659l0.086,0.09c0.05,0.034,0.101,0.081,0.156,0.112l7.113,3.985
		c0.057,0.031,0.113,0.063,0.245,0.121c2.105,0.92,4.88,0.331,6.422-1.345c0.936-1.018,3.262-2.835,4.564-2.835
		c1.259,0,3.519,1.713,4.596,2.893c1.038,1.147,2.624,1.833,4.242,1.833c0.767,0,1.497-0.147,2.229-0.464
		c0.071-0.029,0.141-0.063,0.197-0.096l7.374-4.075c0.055-0.031,0.108-0.064,0.162-0.101l0.083-0.058
		c2.075-1.447,2.87-4.282,1.854-6.579c-0.17-0.403-0.492-1.602-0.492-2.33c0-3.037,2.472-5.753,5.509-5.753h0.293
		c2.212,0,3.964-1.459,4.465-4.106c0.065-0.353,0.622-3.395,0.622-5.924C63.212,29.465,62.659,26.609,62.552,26.036z M49.103,51.704
		c0.241,0.543,0.031,1.292-0.399,1.598l-7.22,3.992c-0.55,0.235-1.403,0.05-1.811-0.398c-0.583-0.639-1.642-1.62-2.862-2.457
		c-1.708-1.169-3.3-1.763-4.731-1.763c-3.69,0-7.509,4.104-7.548,4.146c-0.387,0.418-1.15,0.643-1.804,0.381l-6.912-3.864
		c-0.489-0.343-0.697-1.094-0.46-1.631c0.009-0.018,0.834-1.875,0.834-3.711c0-5.271-4.289-9.561-9.561-9.561l-0.268,0.005
		c-0.089-0.035-0.375-0.347-0.508-1.049c-0.006-0.03-0.571-3.043-0.571-5.301c0-2.269,0.565-5.143,0.571-5.176
		C5.986,26.216,6.271,26,6.377,26h0.252c5.271,0,9.561-4.416,9.561-9.688c0-1.75-0.744-3.569-0.831-3.77
		c-0.241-0.544-0.031-1.323,0.399-1.628l7.352-4.056c0.546-0.233,1.428-0.059,1.843,0.378c0.577,0.604,1.621,1.526,2.815,2.311
		c1.674,1.101,3.227,1.656,4.614,1.656c1.375,0,2.914-0.548,4.576-1.626c1.192-0.773,2.231-1.684,2.808-2.279
		c0.275-0.287,0.776-0.479,1.246-0.479c0.221,0,0.42,0.037,0.535,0.083l7.099,3.942c0.489,0.342,0.698,1.091,0.45,1.649
		c-0.138,0.319-0.824,1.998-0.824,3.691c0,5.271,4.289,9.56,9.561,9.56l0.268-0.004c0.089,0.035,0.375,0.346,0.508,1.049
		c0.006,0.03,0.571,3.044,0.571,5.301c0,2.181-0.513,4.769-0.571,5.084C58.475,37.878,58.187,38,58.084,38h-0.252
		c-5.271,0-9.561,4.508-9.561,9.779C48.271,49.531,49.013,51.498,49.103,51.704z"/>
</g>
</svg>
