<?xml version="1.0" encoding="utf-8"?>
<!-- Generator: Adobe Illustrator 16.0.0, SVG Export Plug-In . SVG Version: 6.00 Build 0)  -->
<!DOCTYPE svg PUBLIC "-//W3C//DTD SVG 1.1//EN" "http://www.w3.org/Graphics/SVG/1.1/DTD/svg11.dtd">
<svg version="1.1" id="Layer_1" xmlns="http://www.w3.org/2000/svg" xmlns:xlink="http://www.w3.org/1999/xlink" x="0px" y="0px"
	 width="64px" height="64px" viewBox="0 0 64 64" enable-background="new 0 0 64 64" xml:space="preserve">
<g>
	<path d="M60,18h-9c-1.104,0-2,0.896-2,2s0.896,2,2,2h7v21h-7c-1.104,0-2,0.896-2,2s0.896,2,2,2h9c1.104,0,2-0.896,2-2V20
		C62,18.896,61.104,18,60,18z"/>
	<path d="M34,45c0-1.104-0.896-2-2-2H6V22h26c1.104,0,2-0.896,2-2s-0.896-2-2-2H4c-1.104,0-2,0.896-2,2v25c0,1.104,0.896,2,2,2h28
		C33.104,47,34,46.104,34,45z"/>
	<path d="M48,52h-5V12h5c1.104,0,2-0.896,2-2s-0.896-2-2-2H34c-1.104,0-2,0.896-2,2s0.896,2,2,2h5v40h-5c-1.104,0-2,0.896-2,2
		s0.896,2,2,2h14c1.104,0,2-0.896,2-2S49.104,52,48,52z"/>
	<path d="M32,26H12c-1.104,0-2,0.896-2,2v9c0,1.104,0.896,2,2,2h20c1.104,0,2-0.896,2-2v-9C34,26.896,33.104,26,32,26z"/>
</g>
</svg>
