<?xml version="1.0" encoding="utf-8"?>
<!-- Generator: Adobe Illustrator 16.0.0, SVG Export Plug-In . SVG Version: 6.00 Build 0)  -->
<!DOCTYPE svg PUBLIC "-//W3C//DTD SVG 1.1//EN" "http://www.w3.org/Graphics/SVG/1.1/DTD/svg11.dtd">
<svg version="1.1" id="图层_1" xmlns="http://www.w3.org/2000/svg" xmlns:xlink="http://www.w3.org/1999/xlink" x="0px" y="0px"
	 width="64px" height="64px" viewBox="68 68 64 64" enable-background="new 68 68 64 64" xml:space="preserve">
<g>
	<path d="M99.97,105.576c-0.288,0-0.432,0-0.72-0.145L70.61,89.315c-0.432-0.29-0.72-0.721-0.72-1.297
		c0-0.575,0.288-1.007,0.72-1.295l28.64-15.256c0.432-0.288,1.008-0.288,1.297,0l28.64,15.4c0.432,0.287,0.721,0.719,0.721,1.294
		c0,0.576-0.288,1.008-0.721,1.296l-28.496,15.83C100.547,105.432,100.258,105.576,99.97,105.576L99.97,105.576z M74.353,88.162
		l25.618,14.249l25.619-14.249L99.97,74.348L74.353,88.162z"/>
	<path d="M99.97,117.089c-0.288,0-0.432,0-0.72-0.143l-28.64-15.976c-0.72-0.431-0.864-1.294-0.576-2.014
		c0.432-0.719,1.294-1.008,2.015-0.575l27.92,15.543l27.921-15.543c0.721-0.432,1.583-0.144,2.016,0.575
		c0.431,0.72,0.144,1.583-0.575,2.014l-28.641,15.976C100.547,117.089,100.258,117.089,99.97,117.089L99.97,117.089z"/>
	<path d="M99.97,128.748c-0.288,0-0.432,0-0.72-0.144l-28.64-15.977c-0.72-0.43-0.864-1.295-0.576-2.014
		c0.432-0.719,1.294-1.009,2.015-0.575l27.92,15.542l27.921-15.542c0.721-0.434,1.583-0.144,2.016,0.575
		c0.431,0.719,0.144,1.584-0.575,2.014l-28.641,15.977C100.547,128.748,100.258,128.748,99.97,128.748L99.97,128.748z"/>
</g>
</svg>
