<?xml version="1.0" encoding="utf-8"?>
<!-- Generator: Adobe Illustrator 16.0.0, SVG Export Plug-In . SVG Version: 6.00 Build 0)  -->
<!DOCTYPE svg PUBLIC "-//W3C//DTD SVG 1.1//EN" "http://www.w3.org/Graphics/SVG/1.1/DTD/svg11.dtd">
<svg version="1.1" id="图层_1" xmlns="http://www.w3.org/2000/svg" xmlns:xlink="http://www.w3.org/1999/xlink" x="0px" y="0px"
	 width="42px" height="42px" viewBox="0 0 42 42" enable-background="new 0 0 42 42" xml:space="preserve">
<g>
	<path d="M42,1.094c0-0.279-0.105-0.56-0.32-0.773C41.466,0.107,41.186,0,40.904,0c-0.028,0-0.059,0.008-0.088,0.011
		C40.773,0.008,40.732,0,40.688,0H29.313C28.588,0,28,0.49,28,1.094c0,0.604,0.588,1.094,1.313,1.094h8.953L13.219,27.234
		c-0.427,0.429-0.427,1.119,0,1.548c0.428,0.427,1.119,0.427,1.547,0L39.813,3.734v8.953c0,0.726,0.489,1.313,1.095,1.313
		C41.512,14,42,13.412,42,12.688V1.313c0-0.043-0.007-0.086-0.012-0.129C41.992,1.152,42,1.125,42,1.094L42,1.094z"/>
	<path d="M39.921,18.713v15.594c0,3.096-2.519,5.613-5.614,5.613H7.693c-3.096,0-5.614-2.518-5.614-5.613V7.693
		c0-3.096,2.519-5.613,5.614-5.613h14.762V0H7.693C3.451,0,0,3.451,0,7.693v26.613C0,38.55,3.451,42,7.693,42h26.613
		C38.549,42,42,38.55,42,34.307V18.713H39.921z"/>
</g>
</svg>
