<?xml version="1.0" encoding="utf-8"?>
<!-- Generator: Adobe Illustrator 16.0.0, SVG Export Plug-In . SVG Version: 6.00 Build 0)  -->
<!DOCTYPE svg PUBLIC "-//W3C//DTD SVG 1.1//EN" "http://www.w3.org/Graphics/SVG/1.1/DTD/svg11.dtd">
<svg xmlns="http://www.w3.org/2000/svg" xmlns:xlink="http://www.w3.org/1999/xlink" version="1.1" id="图层_1" x="0px" y="0px" width="200px" height="200px" viewBox="0 0 200 200" enable-background="new 0 0 200 200" xml:space="preserve">
<path fill="#231815" d="M72.067,76.74c0.046,9.814,5.259,18.879,13.718,23.856c-14.084,4.207-25.675,14.277-31.809,27.635  c-1.162,2.118-0.386,4.777,1.731,5.938c2.118,1.161,4.777,0.386,5.938-1.731c0.11-0.202,0.205-0.412,0.282-0.629  c9.728-21.025,34.658-30.186,55.685-20.458c9.029,4.177,16.281,11.429,20.459,20.458c0.739,1.535,2.271,2.531,3.976,2.585h1.789  c2.19-0.993,3.167-3.569,2.187-5.765c-6.043-13.511-17.646-23.736-31.809-28.032c13.184-7.906,17.461-25.001,9.556-38.185  S98.77,44.951,85.586,52.856C77.196,57.888,72.063,66.956,72.067,76.74z M100.1,56.859c10.979,0,19.881,8.901,19.881,19.881  c0,10.979-8.901,19.88-19.881,19.88c-10.98,0-19.881-8.901-19.881-19.88c0.322-10.747,9.129-19.29,19.881-19.285V56.859z"/>
<path d="M182.207,16.7h-6.362c-25.142,1.491-50.233-3.651-72.763-14.911L99.9,0l-3.578,1.789  C73.537,13.132,48.167,18.275,22.763,16.7h-5.964v76.938c1.412,48.987,34.258,91.471,81.312,105.168h3.777  c46-15.331,78.143-56.982,81.313-105.367V22.664L182.207,16.7z M174.354,93.65c-2.898,44.373-31.934,82.761-73.841,97.626  c-43.111-13.104-72.961-52.374-74.047-97.419V26.429c25.48,0.586,50.75-4.724,73.84-15.512  c23.167,10.777,48.501,16.084,74.048,15.512V93.65z"/>
</svg>
