<svg 
 xmlns="http://www.w3.org/2000/svg"
 xmlns:xlink="http://www.w3.org/1999/xlink"
 width="22px" height="22px">
<path fill-rule="evenodd"  
 d="M11.000,-0.000 C4.935,-0.000 -0.000,4.935 -0.000,11.000 C-0.000,17.065 4.935,22.000 11.000,22.000 C13.343,22.000 15.607,21.254 17.474,19.888 L19.293,21.707 C19.488,21.902 19.744,22.000 20.000,22.000 C20.256,22.000 20.512,21.902 20.707,21.707 C21.098,21.316 21.098,20.684 20.707,20.293 L11.707,11.293 C11.316,10.902 10.684,10.902 10.293,11.293 C9.902,11.684 9.902,12.316 10.293,12.707 L12.349,14.763 C11.923,14.916 11.470,15.000 11.000,15.000 C8.794,15.000 7.000,13.206 7.000,11.000 C7.000,8.794 8.794,7.000 11.000,7.000 C13.206,7.000 15.000,8.794 15.000,11.000 C15.000,11.552 15.448,12.000 16.000,12.000 C16.552,12.000 17.000,11.552 17.000,11.000 C17.000,7.691 14.309,5.000 11.000,5.000 C7.691,5.000 5.000,7.691 5.000,11.000 C5.000,14.309 7.691,17.000 11.000,17.000 C12.019,17.000 12.990,16.747 13.858,16.273 L16.035,18.449 C14.561,19.451 12.811,20.000 11.000,20.000 C6.038,20.000 2.000,15.962 2.000,11.000 C2.000,6.038 6.038,2.000 11.000,2.000 C15.962,2.000 20.000,6.038 20.000,11.000 C20.000,11.975 19.845,12.933 19.540,13.845 C19.364,14.369 19.646,14.935 20.170,15.111 C20.696,15.286 21.261,15.003 21.436,14.480 C21.810,13.362 22.000,12.191 22.000,11.000 C22.000,4.935 17.065,-0.000 11.000,-0.000 Z"/>
</svg>