<?xml version="1.0" encoding="utf-8"?>
<!-- Generator: Adobe Illustrator 16.0.0, SVG Export Plug-In . SVG Version: 6.00 Build 0)  -->
<!DOCTYPE svg PUBLIC "-//W3C//DTD SVG 1.1//EN" "http://www.w3.org/Graphics/SVG/1.1/DTD/svg11.dtd">
<svg version="1.1" id="Layer_1" xmlns="http://www.w3.org/2000/svg" xmlns:xlink="http://www.w3.org/1999/xlink" x="0px" y="0px"
	 width="64px" height="64px" viewBox="0 0 64 64" style="enable-background:new 0 0 64 64;" xml:space="preserve">
<style type="text/css">
<![CDATA[
	.st0{fill:none;stroke:#000000;stroke-width:4;stroke-linecap:round;stroke-linejoin:round;stroke-miterlimit:10;}
	.st1{fill:none;stroke:#FFFFFF;stroke-width:4;stroke-linecap:round;stroke-linejoin:round;stroke-miterlimit:10;}
	.st2{fill:#FFFFFF;stroke:#FFFFFF;stroke-width:4;stroke-linecap:round;stroke-linejoin:round;stroke-miterlimit:10;}
	.st3{stroke:#000000;stroke-linecap:round;stroke-linejoin:round;stroke-miterlimit:10;}
	.st4{fill:none;stroke:#000000;stroke-width:4;stroke-miterlimit:10;}
	.st5{display:none;opacity:0.53;fill:#FF0000;}
	.st6{stroke:#000000;stroke-width:2.5;stroke-miterlimit:10;}
	.st7{stroke:#000000;stroke-width:4;stroke-linecap:round;stroke-linejoin:round;stroke-miterlimit:10;}
	.st8{stroke:#000000;stroke-width:6;stroke-linecap:round;stroke-linejoin:round;stroke-miterlimit:10;}
	.st9{stroke:#000000;stroke-miterlimit:10;}
	.st10{stroke:#000000;stroke-width:2;stroke-miterlimit:10;}
]]>
</style>
<g>
	<path d="M55.2,2H42c-1.1,0-2,0.9-2,2s0.9,2,2,2h13.2c1.5,0,2.8,1.1,2.8,2.3v47.4c0,1.3-1.3,2.3-2.8,2.3H42c-1.1,0-2,0.9-2,2
		s0.9,2,2,2h13.2c3.7,0,6.8-2.8,6.8-6.3V8.3C61.9,4.8,58.9,2,55.2,2z"/>
	<path d="M44.8,31.9c-0.1-0.1-0.3-0.2-0.4-0.3c-0.1-0.2-0.2-0.3-0.3-0.4L27.5,14.7c-0.8-0.8-2-0.8-2.8,0s-0.8,2,0,2.8l13.8,13.8
		L4.1,31c0,0,0,0,0,0c-1.1,0-2,0.9-2,2c0,1.1,0.9,2,2,2l34.5,0.3L25.5,48.4c-0.8,0.8-0.8,2,0,2.8c0.4,0.4,0.9,0.6,1.4,0.6
		s1-0.2,1.4-0.6l16.5-16.5C45.6,34,45.6,32.7,44.8,31.9z"/>
</g>
</svg>
