<svg 
 xmlns="http://www.w3.org/2000/svg"
 xmlns:xlink="http://www.w3.org/1999/xlink"
 width="20px" height="23px">
<path fill-rule="evenodd" 
 d="M10.000,22.988 C6.286,22.988 0.000,22.263 0.000,19.547 C0.000,18.420 1.048,17.541 3.114,16.934 L3.688,18.817 C2.717,19.103 2.249,19.390 2.067,19.550 C2.617,20.056 5.265,21.021 10.000,21.021 C14.746,21.021 17.396,20.052 17.937,19.547 C17.396,19.041 14.746,18.072 10.000,18.072 L10.000,16.105 C13.714,16.105 20.000,16.830 20.000,19.547 C20.000,22.263 13.714,22.988 10.000,22.988 ZM8.209,15.025 L9.908,18.643 C10.139,19.136 9.920,19.720 9.419,19.948 C9.283,20.009 9.140,20.038 9.000,20.038 C8.622,20.038 8.260,19.827 8.091,19.467 L6.432,15.932 C6.133,15.730 5.967,15.380 6.005,15.022 L1.856,6.182 L2.171,5.723 C3.904,3.200 6.800,2.878 9.601,2.566 C11.320,2.375 13.097,2.177 14.553,1.461 L15.584,0.954 L19.344,12.045 L18.100,12.168 C14.026,12.570 9.411,13.734 8.209,15.025 ZM14.393,3.659 C12.915,4.176 11.350,4.350 9.826,4.520 C7.479,4.781 5.426,5.010 4.162,6.402 L7.351,13.196 C9.672,11.468 14.262,10.668 16.663,10.354 L14.393,3.659 Z"/>
</svg>