<svg 
 xmlns="http://www.w3.org/2000/svg"
 xmlns:xlink="http://www.w3.org/1999/xlink"
 width="19px" height="19px">
<path fill-rule="evenodd" 
 d="M14.500,9.000 L10.000,9.000 L10.000,4.500 C10.000,2.019 12.019,-0.000 14.500,-0.000 C16.981,-0.000 19.000,2.019 19.000,4.500 C19.000,6.981 16.981,9.000 14.500,9.000 ZM14.500,2.000 C13.122,2.000 12.000,3.122 12.000,4.500 L12.000,7.000 L14.500,7.000 C15.878,7.000 17.000,5.878 17.000,4.500 C17.000,3.122 15.878,2.000 14.500,2.000 ZM4.500,19.000 C2.019,19.000 -0.000,16.981 -0.000,14.500 C-0.000,12.019 2.019,10.000 4.500,10.000 L9.000,10.000 L9.000,14.500 C9.000,16.981 6.981,19.000 4.500,19.000 ZM7.000,12.000 L4.500,12.000 C3.122,12.000 2.000,13.122 2.000,14.500 C2.000,15.878 3.122,17.000 4.500,17.000 C5.878,17.000 7.000,15.878 7.000,14.500 L7.000,12.000 ZM-0.000,4.500 C-0.000,2.019 2.019,-0.000 4.500,-0.000 C6.981,-0.000 9.000,2.019 9.000,4.500 L9.000,9.000 L4.500,9.000 C2.019,9.000 -0.000,6.981 -0.000,4.500 ZM7.000,4.500 C7.000,3.122 5.878,2.000 4.500,2.000 C3.122,2.000 2.000,3.122 2.000,4.500 C2.000,5.878 3.122,7.000 4.500,7.000 L7.000,7.000 L7.000,4.500 ZM19.000,14.500 C19.000,16.981 16.981,19.000 14.500,19.000 C12.019,19.000 10.000,16.981 10.000,14.500 L10.000,10.000 L14.500,10.000 C16.981,10.000 19.000,12.019 19.000,14.500 ZM12.000,14.500 C12.000,15.878 13.122,17.000 14.500,17.000 C15.878,17.000 17.000,15.878 17.000,14.500 C17.000,13.122 15.878,12.000 14.500,12.000 L12.000,12.000 L12.000,14.500 Z"/>
</svg>