<?xml version="1.0" encoding="utf-8"?>
<!-- Generator: Adobe Illustrator 16.0.0, SVG Export Plug-In . SVG Version: 6.00 Build 0)  -->
<!DOCTYPE svg PUBLIC "-//W3C//DTD SVG 1.1//EN" "http://www.w3.org/Graphics/SVG/1.1/DTD/svg11.dtd">
<svg version="1.1" id="Layer_1" xmlns="http://www.w3.org/2000/svg" xmlns:xlink="http://www.w3.org/1999/xlink" x="0px" y="0px"
	 width="64px"  height="64px" viewBox="0 0 64 64" enable-background="new 0 0 64 64" xml:space="preserve">
<g>
	<path d="M32.555,21.581l1.803,2.504l-1.098,0.76c-0.148,0.103-0.229,0.276-0.214,0.456c0.016,0.179,0.127,0.336,0.29,0.41
		l5.366,2.347C38.769,28.088,38.84,28,38.91,28c0.007,0,0.015,0,0.02,0c0.276,0,0.5-0.121,0.5-0.397
		c0-0.066-0.013-0.078-0.035-0.135l-0.569-5.787c-0.018-0.176-0.127-0.317-0.288-0.392c-0.159-0.074-0.348-0.052-0.494,0.049
		l-1.091,0.758l-1.593-2.486c-0.774-1.162-1.977-1.855-3.216-1.855c-1.238,0-2.44,0.694-3.208,1.845l-4.804,6.798
		c-0.478,0.794-0.321,1.779,0.307,2.243c0.23,0.232,0.599,0.382,0.938,0.382c0.574,0,1.054-0.245,1.342-0.679l4.782-6.765
		C31.865,21.069,32.187,21.065,32.555,21.581z"/>
	<path d="M29.344,37h-9.101c-0.024,0-0.048,0-0.071,0c0.004,0,0.008,0.221,0.012,0.212l1.813-2.4l1.113,0.83
		c0.146,0.102,0.335,0.147,0.494,0.072c0.161-0.074,0.271-0.214,0.288-0.39l0.583-5.943c0.017-0.178-0.062-0.349-0.207-0.452
		c-0.146-0.104-0.336-0.121-0.499-0.046l-5.366,2.451c-0.163,0.074-0.274,0.232-0.29,0.411c-0.016,0.179,0.065,0.354,0.214,0.456
		l1.098,0.76l-1.791,2.489c-0.9,1.156-1.094,2.629-0.532,3.751c0.443,1.035,1.677,1.8,3.143,1.8h9.101c0.98,0,1.666-1.019,1.666-2
		C31.01,38.019,30.324,37,29.344,37z"/>
	<path d="M41.905,28.732c-0.291-0.485-0.767-0.764-1.305-0.764c-0.375,0-0.744,0.138-1.015,0.359
		c-0.399,0.24-0.663,0.611-0.74,1.042c-0.082,0.456,0.052,0.929,0.354,1.303l4.631,6.471L43.877,37H38v-0.894
		c0-0.18-0.209-0.345-0.363-0.434c-0.156-0.089-0.404-0.087-0.559,0.003l-5.16,3.033c-0.152,0.09-0.261,0.254-0.261,0.431
		s0.087,0.34,0.238,0.431l5.13,3.034c0.079,0.046,0.165,0.069,0.253,0.069c0.086,0,0.281-0.022,0.358-0.066
		C37.792,42.518,38,42.353,38,42.173V41h5.927c1.531,0,2.715-0.708,3.247-1.773c0.569-1.138,0.399-2.418-0.505-3.711L41.905,28.732z
		"/>
	<path d="M53.5,3h-43c-3.309,0-6,2.441-6,5.75c0,0.084,0.006,0.044,0.016,0.128l5.986,47.074C10.576,59.196,13.238,62,16.5,62h31
		c3.262,0,5.924-2.866,5.998-6.11l5.986-47.011c0.01-0.084,0.016,0.019,0.016-0.066C59.5,5.504,56.809,3,53.5,3z M49.516,55.247
		c-0.01,0.084-0.016,0.419-0.016,0.503c0,1.103-0.897,2.25-2,2.25h-31c-1.103,0-2-1.147-2-2.25c0-0.084-0.006-0.294-0.016-0.378
		L8.503,8.707C8.558,7.653,9.433,7,10.5,7h43c1.067,0,1.942,0.59,1.997,1.645L49.516,55.247z"/>
</g>
</svg>
