<svg 
 xmlns="http://www.w3.org/2000/svg"
 xmlns:xlink="http://www.w3.org/1999/xlink"
 width="21px" height="21px">
<path fill-rule="evenodd"  
 d="M20.738,11.890 L20.599,12.943 L19.689,12.770 C18.342,12.997 17.431,14.253 17.606,15.614 C17.658,15.980 17.787,16.326 17.988,16.629 L18.441,17.311 L17.877,17.901 C16.887,18.936 15.715,19.742 14.394,20.299 L13.576,20.643 L13.148,19.854 C12.733,19.311 12.150,18.970 11.496,18.884 C10.842,18.799 10.187,18.980 9.661,19.395 C9.368,19.623 9.137,19.910 8.987,20.227 L8.636,20.974 L7.849,20.769 C7.389,20.650 6.929,20.495 6.483,20.309 C5.626,19.952 4.817,19.476 4.077,18.895 L3.344,18.319 L3.857,17.534 C4.084,16.943 4.080,16.256 3.824,15.633 C3.567,15.010 3.089,14.526 2.478,14.271 C2.140,14.131 1.778,14.072 1.424,14.092 L0.626,14.146 L0.405,13.363 C0.014,11.979 -0.087,10.538 0.106,9.080 L0.246,8.027 L1.155,8.199 C2.502,7.973 3.413,6.717 3.238,5.356 C3.186,4.989 3.057,4.644 2.856,4.341 L2.403,3.659 L2.967,3.069 C3.957,2.034 5.129,1.227 6.450,0.671 L7.268,0.326 L7.696,1.116 C8.112,1.659 8.694,2.000 9.348,2.085 C10.005,2.170 10.657,1.990 11.183,1.574 C11.476,1.346 11.707,1.060 11.857,0.742 L12.208,-0.004 L12.995,0.200 C13.455,0.320 13.915,0.475 14.361,0.661 C15.218,1.018 16.028,1.493 16.767,2.074 L17.501,2.650 L16.987,3.436 C16.761,4.027 16.764,4.713 17.020,5.337 C17.277,5.960 17.755,6.444 18.367,6.698 C18.705,6.840 19.070,6.899 19.420,6.878 L20.218,6.824 L20.439,7.606 C20.830,8.990 20.931,10.432 20.738,11.890 ZM18.699,8.865 C18.330,8.814 17.964,8.715 17.616,8.570 C16.515,8.110 15.654,7.240 15.192,6.119 C14.814,5.200 14.742,4.205 14.976,3.257 C14.543,2.973 14.086,2.730 13.612,2.532 C13.472,2.474 13.330,2.420 13.189,2.369 C12.961,2.671 12.692,2.944 12.391,3.177 C11.451,3.919 10.279,4.243 9.096,4.090 C8.128,3.964 7.247,3.527 6.560,2.844 C5.963,3.157 5.410,3.537 4.906,3.982 C5.048,4.331 5.148,4.701 5.202,5.080 C5.497,7.362 4.096,9.473 2.005,10.077 C1.971,10.763 2.018,11.441 2.145,12.105 C2.514,12.155 2.880,12.255 3.228,12.400 C4.330,12.859 5.190,13.730 5.652,14.851 C6.030,15.770 6.102,16.765 5.868,17.712 C6.302,17.997 6.758,18.240 7.233,18.437 C7.372,18.496 7.514,18.550 7.656,18.601 C7.884,18.299 8.152,18.026 8.453,17.793 C9.392,17.050 10.564,16.724 11.748,16.879 C12.717,17.006 13.598,17.442 14.284,18.125 C14.881,17.813 15.434,17.433 15.939,16.988 C15.796,16.639 15.696,16.269 15.642,15.890 C15.348,13.608 16.748,11.497 18.839,10.892 C18.873,10.206 18.826,9.528 18.699,8.865 ZM10.422,14.023 C8.509,14.023 6.952,12.435 6.952,10.485 C6.952,8.534 8.509,6.947 10.422,6.947 C12.335,6.947 13.892,8.534 13.892,10.485 C13.892,12.435 12.335,14.023 10.422,14.023 ZM10.422,8.969 C9.602,8.969 8.935,9.649 8.935,10.485 C8.935,11.321 9.602,12.001 10.422,12.001 C11.242,12.001 11.909,11.321 11.909,10.485 C11.909,9.649 11.242,8.969 10.422,8.969 Z"/>
</svg>